<svg width="621" height="166" viewBox="0 0 621 166" fill="none" xmlns="http://www.w3.org/2000/svg">
<g clip-path="url(#clip0_9_27)">
<rect width="621" height="166" fill="#0D1117"/>
<path d="M80.0312 161.75C74.0625 161.75 69.25 159.891 65.5938 156.172C61.9688 152.453 60.1562 147.25 60.1562 140.562V102.5C60.1562 94.5 61.7344 88.375 64.8906 84.125C68.0781 79.875 73.25 77.75 80.4062 77.75C84.3125 77.75 87.7812 78.4688 90.8125 79.9062C93.875 81.3438 96.2812 83.5 98.0312 86.375C99.7812 89.2188 100.656 92.8125 100.656 97.1562V111.406H84.25V99.2188C84.25 96.75 83.9375 95.0938 83.3125 94.25C82.6875 93.375 81.7188 92.9375 80.4062 92.9375C78.875 92.9375 77.8438 93.5 77.3125 94.625C76.7812 95.7188 76.5156 97.1875 76.5156 99.0312V140.328C76.5156 142.609 76.8438 144.219 77.5 145.156C78.1875 146.094 79.1562 146.562 80.4062 146.562C81.8125 146.562 82.7969 145.984 83.3594 144.828C83.9531 143.672 84.25 142.172 84.25 140.328V125.469H100.844V141.078C100.844 148.328 99.0156 153.594 95.3594 156.875C91.7031 160.125 86.5938 161.75 80.0312 161.75ZM105.625 161V78.5H121.562V161H105.625ZM135.203 161V94.3438H125.406V78.5H161.5V94.3438H151.703V161H135.203ZM162.625 161L170.594 78.5H198.578L206.406 161H190.797L189.625 147.688H179.688L178.656 161H162.625ZM180.859 134.516H188.359L184.75 92.5625H184L180.859 134.516ZM217.328 161V94.3438H207.531V78.5H243.625V94.3438H233.828V161H217.328ZM247.469 161V78.5H263.406V161H247.469ZM289.656 161.75C283.062 161.75 278.016 159.766 274.516 155.797C271.047 151.797 269.312 146.031 269.312 138.5V99.3125C269.312 92.25 271.031 86.8906 274.469 83.2344C277.938 79.5781 283 77.75 289.656 77.75C296.312 77.75 301.359 79.5781 304.797 83.2344C308.266 86.8906 310 92.25 310 99.3125V138.5C310 146.031 308.25 151.797 304.75 155.797C301.281 159.766 296.25 161.75 289.656 161.75ZM289.797 146.562C292.297 146.562 293.547 144.141 293.547 139.297V99.0312C293.547 94.9688 292.328 92.9375 289.891 92.9375C287.141 92.9375 285.766 95.0156 285.766 99.1719V139.391C285.766 141.953 286.078 143.797 286.703 144.922C287.328 146.016 288.359 146.562 289.797 146.562ZM316.656 161V78.5H333.625L341.219 118.016V78.5H357.156V161H341.031L332.781 119.75V161H316.656ZM386.969 161V78.5H419.969V94.5781H403.562V107.703H419.125V123.594H403.562V161H386.969ZM425.312 161V78.5H441.812V146.938H458.781V161H425.312ZM483.156 161.75C476.562 161.75 471.516 159.766 468.016 155.797C464.547 151.797 462.812 146.031 462.812 138.5V99.3125C462.812 92.25 464.531 86.8906 467.969 83.2344C471.438 79.5781 476.5 77.75 483.156 77.75C489.812 77.75 494.859 79.5781 498.297 83.2344C501.766 86.8906 503.5 92.25 503.5 99.3125V138.5C503.5 146.031 501.75 151.797 498.25 155.797C494.781 159.766 489.75 161.75 483.156 161.75ZM483.297 146.562C485.797 146.562 487.047 144.141 487.047 139.297V99.0312C487.047 94.9688 485.828 92.9375 483.391 92.9375C480.641 92.9375 479.266 95.0156 479.266 99.1719V139.391C479.266 141.953 479.578 143.797 480.203 144.922C480.828 146.016 481.859 146.562 483.297 146.562ZM516.625 161L507.766 78.5H523.891L528.438 130.578L533.078 78.5H548.453L552.859 130.578L557.266 78.5H573.578L564.578 161H544.797L540.672 121.297L536.734 161H516.625Z" fill="white"/>
<path d="M576.719 160.977V153.992H585.109V160.977H576.719ZM587.102 161L591.086 119.75H605.078L608.992 161H601.188L600.602 154.344H595.633L595.117 161H587.102ZM596.219 147.758H599.969L598.164 126.781H597.789L596.219 147.758ZM611.148 161V119.75H619.117V161H611.148Z" fill="white"/>
<path d="M126.501 41.7629C23.5667 -42.143 -19 81 43.0001 121" stroke="white" stroke-width="4"/>
<circle cx="39" cy="39" r="38" fill="#7200D7" stroke="white" stroke-width="2"/>
<circle cx="34.5" cy="122.5" r="16.5" fill="#4900DA" stroke="white" stroke-width="2"/>
<circle cx="124.5" cy="48.5" r="24.5" fill="#0004DA" stroke="white" stroke-width="2"/>
</g>
<defs>
<clipPath id="clip0_9_27">
<rect width="621" height="166" fill="white"/>
</clipPath>
</defs>
</svg>
